<?xml version="1.0" encoding="UTF-8" standalone="no"?>
<svg
   width="24"
   height="24"
   viewBox="0 0 24 24"
   fill="none"
   version="1.1"
   id="svg5"
   sodipodi:docname="notes.svg"
   inkscape:version="1.4.2 (ebf0e940d0, 2025-05-08)"
   xmlns:inkscape="http://www.inkscape.org/namespaces/inkscape"
   xmlns:sodipodi="http://sodipodi.sourceforge.net/DTD/sodipodi-0.dtd"
   xmlns="http://www.w3.org/2000/svg"
   xmlns:svg="http://www.w3.org/2000/svg">
  <defs
     id="defs5" />
  <sodipodi:namedview
     id="namedview5"
     pagecolor="#ffffff"
     bordercolor="#000000"
     borderopacity="0.25"
     inkscape:showpageshadow="2"
     inkscape:pageopacity="0.0"
     inkscape:pagecheckerboard="0"
     inkscape:deskcolor="#d1d1d1"
     inkscape:zoom="48.708333"
     inkscape:cx="11.989735"
     inkscape:cy="12"
     inkscape:window-width="2560"
     inkscape:window-height="1380"
     inkscape:window-x="0"
     inkscape:window-y="0"
     inkscape:window-maximized="1"
     inkscape:current-layer="svg5" />
  <path
     d="M6 6C6 5.44772 6.44772 5 7 5H17C17.5523 5 18 5.44772 18 6C18 6.55228 17.5523 7 17 7H7C6.44771 7 6 6.55228 6 6Z"
     fill="currentColor"
     id="path1" />
  <path
     d="M6 10C6 9.44771 6.44772 9 7 9H17C17.5523 9 18 9.44771 18 10C18 10.5523 17.5523 11 17 11H7C6.44771 11 6 10.5523 6 10Z"
     fill="currentColor"
     id="path2" />
  <path
     d="M7 13C6.44772 13 6 13.4477 6 14C6 14.5523 6.44771 15 7 15H17C17.5523 15 18 14.5523 18 14C18 13.4477 17.5523 13 17 13H7Z"
     fill="currentColor"
     id="path3" />
  <path
     d="M6 18C6 17.4477 6.44772 17 7 17H11C11.5523 17 12 17.4477 12 18C12 18.5523 11.5523 19 11 19H7C6.44772 19 6 18.5523 6 18Z"
     fill="currentColor"
     id="path4" />
  <path
     fill-rule="evenodd"
     clip-rule="evenodd"
     d="M2 4C2 2.34315 3.34315 1 5 1H19C20.6569 1 22 2.34315 22 4V20C22 21.6569 20.6569 23 19 23H5C3.34315 23 2 21.6569 2 20V4ZM5 3H19C19.5523 3 20 3.44771 20 4V20C20 20.5523 19.5523 21 19 21H5C4.44772 21 4 20.5523 4 20V4C4 3.44772 4.44771 3 5 3Z"
     fill="currentColor"
     id="path5" />
  <path
     style="fill:#d45500;stroke-width:0.0205304"
     d="M 4.6809239,22.9715 C 3.6727812,22.858988 2.7887805,22.244481 2.3341137,21.340131 2.2176572,21.108495 2.1278797,20.853387 2.0685656,20.585562 L 2.0222412,20.37639 V 12 3.6236099 L 2.0685656,3.4144381 C 2.3379434,2.1980977 3.2088563,1.3327609 4.4345595,1.0635928 l 0.2155688,-0.04734 H 12 19.349872 l 0.215569,0.04734 c 0.294388,0.064649 0.546895,0.1531741 0.787033,0.2759228 0.814433,0.4163062 1.374683,1.1525342 1.57896,2.0749225 l 0.04632,0.2091718 V 12 20.37639 l -0.04632,0.209172 c -0.291137,1.31459 -1.31712,2.243137 -2.637212,2.38676 -0.242613,0.0264 -14.3765448,0.0256 -14.6132981,-8.22e-4 z M 19.302997,20.961809 c 0.164229,-0.05073 0.352524,-0.170713 0.454381,-0.289545 0.114371,-0.13343 0.215038,-0.353447 0.238704,-0.521708 0.02802,-0.199219 0.02769,-16.1050669 -3.33e-4,-16.301112 C 19.971279,3.6782915 19.870243,3.4560491 19.75857,3.3277357 19.654599,3.2082718 19.466405,3.0886631 19.302997,3.0381915 19.172433,2.9978643 19.095269,2.9974337 12,2.9974337 c -7.1240699,0 -7.1719132,2.702e-4 -7.304594,0.041251 C 4.5370854,3.087585 4.3412957,3.2131773 4.2373312,3.3325236 4.134884,3.4501281 4.0297626,3.6787247 4.0043428,3.8391788 c -0.029432,0.185782 -0.029432,16.1358602 0,16.3216422 0.025273,0.159529 0.1304068,0.388909 0.231332,0.50472 0.1033006,0.118537 0.2792551,0.233915 0.440562,0.288889 l 0.1381345,0.04708 7.1783337,5.3e-4 c 7.103313,5.25e-4 7.179712,1.04e-4 7.310292,-0.04023 z"
     id="path6" />
  <path
     style="fill:#d45500;stroke-width:0.0205304"
     d="M 6.6984464,6.9374936 C 6.628101,6.9152047 6.5126176,6.8574963 6.4418168,6.8092525 5.9262343,6.4579339 5.8705256,5.7091031 6.3284333,5.2851614 6.4709737,5.1531941 6.6015199,5.0823861 6.7797607,5.0403622 c 0.1944003,-0.045834 10.2460783,-0.045834 10.4404783,0 0.356884,0.084143 0.62804,0.348988 0.734366,0.7172733 0.04629,0.1603227 0.03227,0.425323 -0.03135,0.5929047 -0.101033,0.2661156 -0.354686,0.5033007 -0.628787,0.5879617 -0.134753,0.041621 -0.160373,0.041818 -5.301765,0.04067 -5.0850558,-0.00113 -5.1683705,-0.00179 -5.2942586,-0.041678 z"
     id="path7" />
  <path
     style="fill:#d45500;stroke-width:0.0205304"
     d="M 6.7339607,10.950834 C 6.4196076,10.866728 6.1299509,10.573174 6.0469736,10.254603 5.9091083,9.725302 6.230756,9.183579 6.7656093,9.0442674 6.8724194,9.0164469 7.4744247,9.0128315 12,9.0128315 c 5.636148,0 5.218963,-0.00968 5.475445,0.1270251 0.143972,0.076737 0.338837,0.2779704 0.405559,0.4188139 0.144213,0.3044249 0.136691,0.6489415 -0.02015,0.9230795 -0.07948,0.138914 -0.237727,0.297849 -0.374451,0.376074 -0.23649,0.135306 0.171421,0.12606 -5.495844,0.124572 -4.4601155,-0.0012 -5.1586823,-0.0054 -5.2565933,-0.03156 z"
     id="path8" />
  <path
     style="fill:#d45500;stroke-width:0.0205304"
     d="M 6.7567971,14.954719 C 6.4124142,14.862103 6.1372585,14.585535 6.0435491,14.23781 5.9834933,14.014963 6.0222906,13.7225 6.1389598,13.518583 6.2162282,13.383532 6.3826768,13.217084 6.5177279,13.139815 6.7492924,13.007327 6.3532708,13.016253 12,13.016253 c 4.553911,0 5.147933,0.0036 5.255458,0.03158 0.328156,0.08547 0.612095,0.369413 0.697569,0.697568 0.137865,0.529301 -0.183783,1.071024 -0.718636,1.210336 -0.106882,0.02784 -0.706869,0.03128 -5.243837,0.03008 -4.406068,-0.0012 -5.138628,-0.0055 -5.2337569,-0.0311 z"
     id="path9" />
  <path
     style="fill:#8a3700;stroke-width:0.0205304;fill-opacity:1"
     d="M 6.754491,18.953342 C 6.4115564,18.863702 6.1486854,18.600136 6.0453949,18.242365 5.9991089,18.082042 6.0131199,17.817041 6.0767439,17.64946 6.1777761,17.383344 6.43143,17.146159 6.7055304,17.061498 c 0.1325947,-0.04095 0.1802815,-0.04182 2.2954726,-0.04182 1.916025,0 2.172664,0.0037 2.271576,0.03271 0.330703,0.09702 0.596564,0.375201 0.685721,0.717497 0.136656,0.52466 -0.220909,1.084527 -0.765126,1.198016 -0.07554,0.01575 -0.750167,0.02233 -2.2070155,0.02151 -1.905868,-0.0011 -2.1104532,-0.0044 -2.231667,-0.03607 z"
     id="path10" />
  <path
     style="fill:#8a3700;fill-opacity:1;stroke-width:0.0205304"
     d="M 6.8050601,14.946322 C 6.5857966,14.914106 6.3175344,14.729859 6.1817093,14.518194 6.0815608,14.362126 6.0358932,14.203884 6.0361718,14.013895 c 4.411e-4,-0.300806 0.086362,-0.506232 0.295439,-0.706358 0.1920701,-0.183847 0.2841738,-0.229335 0.5094193,-0.251592 0.2813163,-0.0278 5.7491259,-0.04472 8.2487899,-0.02553 l 2.165954,0.01663 0.139855,0.06624 c 0.196831,0.09323 0.384514,0.278276 0.481717,0.474955 0.06924,0.140104 0.07631,0.170678 0.08324,0.36027 0.0063,0.171633 -1.6e-5,0.229667 -0.03669,0.338292 -0.113978,0.33757 -0.399653,0.598653 -0.721912,0.659768 -0.124672,0.02364 -10.2359573,0.0234 -10.3969239,-2.53e-4 z"
     id="path11" />
  <path
     style="fill:#8a3700;fill-opacity:1;stroke-width:0.0205304"
     d="M 6.7826796,10.942675 C 6.5371993,10.906715 6.2377634,10.660342 6.1105946,10.389688 6.0559562,10.273402 6.0462131,10.226763 6.039552,10.049615 6.0331603,9.8796305 6.0394484,9.8217545 6.0761036,9.7131927 6.1918753,9.3703117 6.4756211,9.1144872 6.8111602,9.0504673 6.9892875,9.0164811 16.830609,9.0155296 17.11959,9.0494706 c 0.244988,0.028774 0.355412,0.078101 0.528602,0.2361278 0.23336,0.2129297 0.325779,0.4414287 0.312478,0.7725806 -0.0073,0.182068 -0.01531,0.215963 -0.08354,0.354009 -0.05281,0.106857 -0.114229,0.189786 -0.204691,0.276384 -0.198463,0.189985 -0.281748,0.230519 -0.521556,0.253839 -0.240778,0.02341 -10.2084413,0.02367 -10.3682054,2.64e-4 z"
     id="path12" />
  <path
     style="fill:#8a3700;fill-opacity:1;stroke-width:0.0205304"
     d="M 6.7711659,6.9388529 C 6.5228819,6.8966742 6.2531989,6.676759 6.1263526,6.4130346 6.0598888,6.2748508 6.0491291,6.2310256 6.0403204,6.0626186 6.0230564,5.7325643 6.1262614,5.4801429 6.3632234,5.2728543 6.5298975,5.1270519 6.6691452,5.0677245 6.8982036,5.0449225 c 0.2829116,-0.028163 9.9266484,-0.027317 10.1973854,8.94e-4 0.177896,0.018537 0.231199,0.033291 0.354657,0.098167 0.183446,0.096398 0.331923,0.2556809 0.429545,0.4608073 0.06591,0.1384907 0.07404,0.1746272 0.08083,0.3592815 0.0119,0.3237278 -0.0681,0.5147175 -0.312157,0.7452225 -0.0638,0.060256 -0.177073,0.1381005 -0.253933,0.1745081 l -0.138755,0.065727 -5.194183,0.00284 c -2.8568006,0.00156 -5.2374919,-0.00452 -5.2904251,-0.013513 z"
     id="path13" />
</svg>
